# xmcd
#
# Track frame offsets:
#	150
#	17497
#	36540
#	50357
#	62087
#	77417
#	87977
#	101402
#	116377
#	131990
#	156175
#	170390
#	187227
#	199825
#	217395
#	233777
#	251412
#
# Disc length: 3503 seconds
#
# Revision: 1
# Processed by: cddbd v1.5.2PL0 Copyright (c) Steve Scherf et al.
# Submitted via: audiograbber 1.83.01
#
DISCID=ee0dad11
DTITLE=Various Artist - CDXMAS 1005
DYEAR=1994
DGENRE=Country
TTITLE0=Vince Vance and The Valiants - All I Want For Christmas Is You
TTITLE1=Alabama - Angels Among Us
TTITLE2=Clay Walker - Blue Christmas
TTITLE3=John Anderson - Christmas Time
TTITLE4=Sammy Kershaw - Christmas Time's A Comin'
TTITLE5=Alan Jackson - Holly Jolly Christmas
TTITLE6=Alan Jackson - Honky Tonk Christmas
TTITLE7=Kathy Mattea - Mary Did You Know
TTITLE8=John Berry - O Come O Come Emmanuel
TTITLE9=John Berry - O Holy Night (1995 Version)
TTITLE10=Orrall and Wright - Reason For The Season
TTITLE11=The Chipmunks and Patty Loveless - Rockin' Around The Christmas Tree
TTITLE12=Carlene Carter - Rockin' Little Christmas
TTITLE13=The Tractors - Santa Claus Boogie
TTITLE14=Rhonda Vincent - Star Of Bethlehem
TTITLE15=Trisha Yearwood - Take A Walk Through Bethlehem
TTITLE16=Daron Norwood - The Working Elf Blues
EXTD=
EXTT0=
EXTT1=
EXTT2=
EXTT3=
EXTT4=
EXTT5=
EXTT6=
EXTT7=
EXTT8=
EXTT9=
EXTT10=
EXTT11=
EXTT12=
EXTT13=
EXTT14=
EXTT15=
EXTT16=
PLAYORDER=
